<svg
   version="1.1"
   id="svg1"
   width="516.0238"
   height="264.3371"
   viewBox="0 0 516.0238 264.3371"
   sodipodi:docname="favicon.png"
   xmlns:inkscape="http://www.inkscape.org/namespaces/inkscape"
   xmlns:sodipodi="http://sodipodi.sourceforge.net/DTD/sodipodi-0.dtd"
   xmlns:xlink="http://www.w3.org/1999/xlink"
   xmlns="http://www.w3.org/2000/svg"
   xmlns:svg="http://www.w3.org/2000/svg">
     <style>
    path {
      fill: #133337;
      stroke:none;
    }
    @media (prefers-color-scheme: dark) {
      path {
        fill: #ffffff;
        stroke:none;
      }
    }
  </style>
    <path
       d="M 83,152 C 67.673325,178.90561 46.895775,203.48019 29.341049,229 21.499016,240.40019 15.36116,253.68124 0,254 v 9 h 93 v -9 c -17.643066,-2.65649 -4.566772,-16.41161 1.341049,-25 11.104221,-16.14258 22.702731,-31.94904 33.939041,-48 4.96123,-7.08707 10.13205,-18.15961 17.04553,-23.39661 C 149.88402,154.15039 159.55888,156 165,156 h 52 v 64 c 0,8.06773 2.32039,20.42744 -0.74228,27.95602 C 213.94447,253.64238 207.23868,253.95605 202,254 v 9 h 152 c 40.06699,0 81.26297,0.36649 115,-24.89507 C 524.93201,196.22427 530.44537,97.449097 488.33102,44 470.40506,21.24939 444.00012,8.2060547 416,2.8047791 389.33456,-2.3390198 361.03748,0 334,0 H 196 C 152.00659,0 102.23422,-6.2688904 60,8.3441315 15.438747,23.762299 -5.5357285,83.027039 24.679785,122 38.813423,140.23003 61.804291,146.5139 83,152 M 217,43 v 74 c -34.78464,0 -71.47719,3.28621 -106,-0.84491 C 97.292801,114.51485 80.839226,110.62189 72.994598,98 60.580795,78.026382 73.030106,53.788528 94,47.439041 111.25008,42.215881 129.20781,43 147,43 h 70 m 70,177 V 43 h 77 c 20.35339,0 44.0434,0.590332 62,11.464508 C 461.92606,76.220627 463.54221,132.6329 453.84491,169 449.772,184.27435 441.76654,199.05035 428,207.53317 408.68509,219.43484 383.98083,220 362,220 Z" />

</svg>
